# xmcd
#
# Track frame offsets: 
#        150
#        15686
#        27337
#        33563
#        58440
#        74331
#        97293
#        101028
#        111695
#        122840
#        129354
#        146194
#        150234
#        162869
#        166108
#        182548
#        201007
#        205187
#
# Disc length: 2991 seconds
#
# Revision: 0
# Processed by: cddbd v1.5.1PL0 Copyright (c) Steve Scherf et al.
# Submitted via: ExactAudioCopy v0.95a5
#
DISCID=080bad12
DTITLE=Jack Bowman - Obsidian [D1]
DYEAR=2002
DGENRE=Rock
TTITLE0=All Governments Are Corrupt
TTITLE1=Just Waiting On You
TTITLE2=Headlines
TTITLE3=Mojo Prisoner
TTITLE4=Someone Else Will
TTITLE5=Hadrian's Wall
TTITLE6=Coming Of The Dragons
TTITLE7=No One Home
TTITLE8=Out On The Boardwalk
TTITLE9=Mindset
TTITLE10=Track House
TTITLE11=Just Down The Street
TTITLE12=Down In New Orleans
TTITLE13=Lost To History
TTITLE14=Welcome To America
TTITLE15=Conquer Ignorance
TTITLE16=Southbound Flames
TTITLE17=Wind and Fire
EXTD=
EXTT0=
EXTT1=
EXTT2=
EXTT3=
EXTT4=
EXTT5=
EXTT6=
EXTT7=
EXTT8=
EXTT9=
EXTT10=
EXTT11=
EXTT12=
EXTT13=
EXTT14=
EXTT15=
EXTT16=
EXTT17=
PLAYORDER=
